<svg width="20" height="19" viewBox="0 0 20 19" fill="none" xmlns="http://www.w3.org/2000/svg">
<path d="M10 3L11.2747 5.69309L14 6.12509L12 8.09091L12.6667 11L10 9.36364L7.33333 11L8 8.09091L6 6.12509L8.8 5.69309L10 3Z" fill="url(#paint0_linear_136_3000)"/>
<path d="M11.24 19L10 18.2692L12.8571 13.1538H17.1429C17.3305 13.1541 17.5164 13.1165 17.6899 13.0432C17.8633 12.9698 18.0209 12.8622 18.1536 12.7264C18.2864 12.5906 18.3916 12.4294 18.4633 12.252C18.535 12.0745 18.5717 11.8843 18.5714 11.6923V2.92308C18.5717 2.73106 18.535 2.54088 18.4633 2.36343C18.3916 2.18598 18.2864 2.02474 18.1536 1.88897C18.0209 1.7532 17.8633 1.64555 17.6899 1.5722C17.5164 1.49886 17.3305 1.46125 17.1429 1.46154H2.85714C2.66946 1.46125 2.48357 1.49886 2.31012 1.5722C2.13667 1.64555 1.97907 1.7532 1.84636 1.88897C1.71365 2.02474 1.60843 2.18598 1.53674 2.36343C1.46505 2.54088 1.42829 2.73106 1.42857 2.92308V11.6923C1.42829 11.8843 1.46505 12.0745 1.53674 12.252C1.60843 12.4294 1.71365 12.5906 1.84636 12.7264C1.97907 12.8622 2.13667 12.9698 2.31012 13.0432C2.48357 13.1165 2.66946 13.1541 2.85714 13.1538H9.28571V14.6154H2.85714C2.09938 14.6154 1.37266 14.3074 0.836838 13.7592C0.30102 13.2111 8.93386e-08 12.4676 8.93386e-08 11.6923V2.92308C-9.37538e-05 2.53919 0.0737443 2.15904 0.217296 1.80435C0.360848 1.44966 0.5713 1.12739 0.836629 0.855935C1.10196 0.584484 1.41696 0.369175 1.76365 0.222311C2.11034 0.0754463 2.48191 -9.59173e-05 2.85714 9.14001e-08H17.1429C17.5181 -9.59173e-05 17.8897 0.0754463 18.2364 0.222311C18.583 0.369175 18.898 0.584484 19.1634 0.855935C19.4287 1.12739 19.6392 1.44966 19.7827 1.80435C19.9263 2.15904 20.0001 2.53919 20 2.92308V11.6923C20 12.4676 19.699 13.2111 19.1632 13.7592C18.6273 14.3074 17.9006 14.6154 17.1429 14.6154H13.6893L11.24 19Z" fill="url(#paint1_linear_136_3000)"/>
<defs>
<linearGradient id="paint0_linear_136_3000" x1="11.6" y1="3.8" x2="8.4" y2="10.0667" gradientUnits="userSpaceOnUse">
<stop stop-color="#3D9378"/>
<stop offset="1" stop-color="#1F674F"/>
</linearGradient>
<linearGradient id="paint1_linear_136_3000" x1="14" y1="1.9" x2="6.63141" y2="17.0896" gradientUnits="userSpaceOnUse">
<stop stop-color="#3D9378"/>
<stop offset="1" stop-color="#1F674F"/>
</linearGradient>
</defs>
</svg>
