<svg width="100" height="100" viewBox="0 0 100 100" fill="none" xmlns="http://www.w3.org/2000/svg">
<path d="M50 100C36.7392 100 24.0215 94.7322 14.6447 85.3553C5.26784 75.9785 0 63.2608 0 50C0 36.7392 5.26784 24.0215 14.6447 14.6447C24.0215 5.26784 36.7392 0 50 0C63.2608 0 75.9785 5.26784 85.3553 14.6447C94.7322 24.0215 100 36.7392 100 50C100 63.2608 94.7322 75.9785 85.3553 85.3553C75.9785 94.7322 63.2608 100 50 100ZM35 30V40C35 43.9782 36.5804 47.7936 39.3934 50.6066C42.2064 53.4197 46.0218 55 50 55C53.9782 55 57.7936 53.4197 60.6066 50.6066C63.4197 47.7936 65 43.9782 65 40V30C65 26.0218 63.4197 22.2064 60.6066 19.3934C57.7936 16.5804 53.9782 15 50 15C46.0218 15 42.2064 16.5804 39.3934 19.3934C36.5804 22.2064 35 26.0218 35 30ZM16.75 72.2C20.4052 77.6658 25.3515 82.1462 31.1511 85.2446C36.9507 88.3431 43.4246 89.964 50 89.9641C56.5754 89.964 63.0493 88.3431 68.8489 85.2446C74.6485 82.1462 79.5948 77.6658 83.25 72.2C72.8192 67.4118 61.4773 64.9329 50 64.9329C38.5227 64.9329 27.1808 67.4118 16.75 72.2Z" fill="url(#paint0_linear_136_2977)"/>
<defs>
<linearGradient id="paint0_linear_136_2977" x1="70" y1="10" x2="30" y2="88.3333" gradientUnits="userSpaceOnUse">
<stop stop-color="#3D9378"/>
<stop offset="1" stop-color="#1F674F"/>
</linearGradient>
</defs>
</svg>
