<svg width="10" height="11" viewBox="0 0 10 11" fill="none" xmlns="http://www.w3.org/2000/svg">
<path fill-rule="evenodd" clip-rule="evenodd" d="M0.52827 1.02861C0.788619 0.768256 1.21073 0.768256 1.47108 1.02861L4.99967 4.5572L8.52827 1.02861C8.78862 0.768256 9.21073 0.768256 9.47108 1.02861C9.73143 1.28896 9.73143 1.71107 9.47108 1.97141L5.94248 5.50001L9.47108 9.02861C9.73143 9.28896 9.73143 9.71107 9.47108 9.97141C9.21073 10.2318 8.78862 10.2318 8.52827 9.97141L4.99967 6.44282L1.47108 9.97141C1.21073 10.2318 0.78862 10.2318 0.52827 9.97141C0.267921 9.71107 0.267921 9.28896 0.52827 9.02861L4.05687 5.50001L0.52827 1.97141C0.26792 1.71107 0.26792 1.28896 0.52827 1.02861Z" fill="url(#paint0_linear_136_2982)"/>
<defs>
<linearGradient id="paint0_linear_136_2982" x1="6.86634" y1="1.76668" x2="3.13301" y2="9.07779" gradientUnits="userSpaceOnUse">
<stop stop-color="#3D9378"/>
<stop offset="1" stop-color="#1F674F"/>
</linearGradient>
</defs>
</svg>
